<mxfile host="app.diagrams.net" modified="2023-11-24T00:59:26.146Z" agent="Mozilla/5.0 (Windows NT 10.0; Win64; x64) AppleWebKit/537.36 (KHTML, like Gecko) Chrome/119.0.0.0 Safari/537.36" version="22.1.3" etag="wEs26voScuPE0B__5523" type="github">
  <diagram name="PÃ¡gina-1" id="DLG2FzNeoyg6u9K-KBL_">
    <mxGraphModel>
      <root>
        <mxCell id="0" />
        <mxCell id="1" parent="0" />
      </root>
    </mxGraphModel>
  </diagram>
</mxfile>
